# xmcd CD database file
#
# Track frame offsets:
#	150
#	44762
#	62396
#	91471
#	117210
#	177603
#	185277
#	230102
#	247047
#	270666
#	298265
#
# Disc length: 4519 seconds
#
# Revision: 0
# Processed by: cddbd v1.5.2PL0 Copyright (c) Steve Scherf et al.
# Submitted via: Feurio! 1.68 - http://www.feurio.com
#
DISCID=a911a50b
DTITLE=OButterfield OBlues OBand - Live
DYEAR=1900
DGENRE=blues
TTITLE0=Everything Going To Be Alright
TTITLE1=Love Disease
TTITLE2=The Boxer
TTITLE3=No Amount Of Loving
TTITLE4=Driftin' And Driftin'
TTITLE5=Intro The Musicians
TTITLE6=Number Nine
TTITLE7=I Want To Be With You
TTITLE8=Born Under A Bad Sign
TTITLE9=Get Together Again
TTITLE10=So Far, So Good
EXTD=
EXTT0=
EXTT1=
EXTT2=
EXTT3=
EXTT4=
EXTT5=
EXTT6=
EXTT7=
EXTT8=
EXTT9=
EXTT10=
PLAYORDER=
